<?xml version="1.0" encoding="UTF-8"?>
<svg version="1.1" xmlns="http://www.w3.org/2000/svg" width="2500" height="2500">
<path d="M0 0 C0.60473145 0.44102051 1.20946289 0.88204102 1.83251953 1.33642578 C6.59967363 4.83266719 11.30314891 8.41016122 16 12 C17.65870385 13.26452011 19.31756482 14.52883415 20.9765625 15.79296875 C23.62666465 17.81255412 26.27637445 19.83263896 28.92456055 21.85473633 C35.06915083 26.5431039 41.24542296 31.18710019 47.4375 35.8125 C54.82360216 41.33526727 62.12077599 46.9536471 69.34228516 52.68945312 C71.05878402 54.04647314 72.78393423 55.3917593 74.51171875 56.734375 C80.89712209 61.70265228 87.17514635 66.76458043 93.32324219 72.02441406 C96.60481039 74.83120218 99.93512219 77.55817948 103.3125 80.25 C110.90282024 86.43306378 117.94236742 93.22364322 125 100 C125.81380127 100.77875488 125.81380127 100.77875488 126.64404297 101.57324219 C133.30737169 107.9798742 139.3697864 114.66899271 145 122 C145.60908203 122.78648926 145.60908203 122.78648926 146.23046875 123.58886719 C161.1009553 142.95481621 169.72917164 163.45809183 166.59765625 188.17578125 C161.73157219 211.67928531 143.20870159 233.32574309 125 248 C123.92567282 248.88658738 122.85146571 249.77332025 121.77734375 250.66015625 C44.17501011 314.22524339 -60.93600212 345.48516342 -222.66943359 348.359375 C-252.64608393 345.12483246 -284.2566167 339.2815286 -309 321 C-309.83789062 320.38769531 -310.67578125 319.77539062 -311.5390625 319.14453125 C-323.92928531 309.15997026 -330.20430894 294.51872459 -332 279 C-333.61876346 255.57273985 -328.24656504 233.11353912 -321 211 C-320.64115723 209.90026855 -320.28231445 208.80053711 -319.91259766 207.66748047 C-312.56115321 185.46241268 -303.53771018 163.94736851 -294.50588989 142.3850708 C-291.08733916 134.22288114 -287.71835808 126.04104553 -284.362854 117.8527832 C-282.69248847 113.78208693 -281.01199773 109.71556735 -279.3314209 105.64907837 C-278.05544246 102.56080288 -276.78354501 99.47102251 -275.51806641 96.37841797 C-264.6912759 69.93542709 -252.12037486 45.22361058 -234 23 C-233.54544434 22.43716309 -233.09088867 21.87432617 -232.62255859 21.29443359 C-206.36045915 -11.02191313 -170.0910238 -33.52336627 -128.38671875 -38.49609375 C-82.83081637 -43.16448281 -36.52671716 -26.73965419 0 0 Z " fill="#000000" transform="translate(977,1683)"/>
<path d="M0 0 C0.76327606 -0.00067474 1.52655212 -0.00134949 2.31295776 -0.00204468 C13.36165342 0.0134958 23.82853022 0.39753631 34.5625 3.25 C35.24973145 3.42160645 35.93696289 3.59321289 36.64501953 3.77001953 C47.20834145 6.42807153 56.91096374 10.22445078 66.5625 15.25 C67.55080811 15.76071045 67.55080811 15.76071045 68.55908203 16.28173828 C82.40624389 23.52206267 94.21913018 32.49010155 105.5625 43.25 C106.05186035 43.70681152 106.5412207 44.16362305 107.04541016 44.63427734 C116.34775644 53.36301274 124.12692533 62.90091401 131.5625 73.25 C132.00158691 73.85505371 132.44067383 74.46010742 132.89306641 75.08349609 C147.4711572 95.3608639 157.42703179 118.05999424 166.69921875 141.10693359 C168.18822037 144.80332959 169.68868801 148.49507368 171.1875 152.1875 C173.0715179 156.83063183 174.9532929 161.47462963 176.82666016 166.12207031 C179.98614075 173.9527194 183.18024571 181.76613699 186.4609375 189.546875 C186.78109833 190.3062587 187.10125916 191.0656424 187.43112183 191.84803772 C187.7498526 192.60402756 188.06858337 193.3600174 188.39697266 194.13891602 C231.54523778 296.51633677 231.54523778 296.51633677 216.12109375 335.93359375 C207.31621416 355.68258522 189.92605185 366.52794516 170.5625 374.25 C120.24341416 392.95890149 61.14132219 391.68912144 8.5625 385.25 C7.87466431 385.1675 7.18682861 385.085 6.47814941 385 C-46.75571821 378.58219181 -98.8152987 363.88042971 -147.4375 341.25 C-148.47068359 340.77449707 -149.50386719 340.29899414 -150.56835938 339.80908203 C-197.20231102 318.28295352 -256.66788603 285.75342825 -275.8125 234.57421875 C-281.50595189 215.85304188 -278.50348388 198.20086488 -269.63598633 181.02587891 C-259.47080622 162.06912897 -244.06170533 143.76479761 -227.48046875 129.9765625 C-225.31912334 128.14995701 -223.24547874 126.24064322 -221.17333984 124.31396484 C-215.12746763 118.69517411 -208.87176685 113.42232032 -202.4375 108.25 C-201.20859981 107.24214684 -199.98080207 106.23294845 -198.75390625 105.22265625 C-191.48710668 99.25150852 -184.13186113 93.44615484 -176.5793457 87.84057617 C-171.47539827 84.04781417 -166.44636094 80.16730274 -161.4375 76.25 C-155.23928051 71.40733197 -148.9987194 66.63142638 -142.68969727 61.93408203 C-138.86818458 59.08520702 -135.07199563 56.20703821 -131.296875 53.296875 C-92.66755666 23.53760394 -49.92550256 0.03952824 0 0 Z " fill="#000000" transform="translate(1634.4375,832.75)"/>
<path d="M0 0 C39.07807371 30.98076026 59.36784137 79.76926993 65.3125 128.3125 C69.89015842 169.93961857 64.57213647 214.15167448 38.3125 248.0625 C25.59535511 263.150638 9.43111259 271.97868131 -10.140625 273.84765625 C-33.82991865 274.45847884 -54.29966676 263.57168899 -71.19238281 247.7121582 C-72.63982552 246.32003636 -74.07012132 244.91015622 -75.5 243.5 C-76.76263672 242.25669922 -76.76263672 242.25669922 -78.05078125 240.98828125 C-106.91656247 210.92551389 -122.67525602 166.38005582 -126.5 125.5 C-126.60957031 124.47003906 -126.71914063 123.44007813 -126.83203125 122.37890625 C-130.50205025 83.1831033 -124.4164017 39.55538925 -98.85546875 8.296875 C-97.68951172 6.91242188 -97.68951172 6.91242188 -96.5 5.5 C-95.93925781 4.82453125 -95.37851562 4.1490625 -94.80078125 3.453125 C-69.22790341 -24.63194991 -28.39514725 -20.82310799 0 0 Z " fill="#000000" transform="translate(927.5,1295.5)"/>
<path d="M0 0 C24.49076775 19.27863 35.52606021 51.11413088 39.41796875 81.09765625 C45.65457638 135.63043324 31.66313015 193.88424034 -2.578125 237.2734375 C-18.73054795 256.35490897 -39.71753931 274.70313799 -65.76269531 276.91796875 C-75.4852611 277.43453771 -85.22827625 277.52077516 -94.328125 273.7109375 C-95.224104 273.3396875 -95.224104 273.3396875 -96.13818359 272.9609375 C-119.42289385 263.05303813 -133.52959562 243.40518294 -142.953125 220.4609375 C-161.51519102 169.83712107 -155.00657321 111.36545284 -132.8737793 62.96386719 C-118.64342029 32.85992066 -95.48106802 2.68578725 -63.328125 -9.2890625 C-40.94966783 -16.42857029 -19.22205431 -13.70181501 0 0 Z " fill="#000000" transform="translate(1659.328125,480.2890625)"/>
<path d="M0 0 C2.46661926 1.93475448 4.86796323 3.92314857 7.25 5.9609375 C8.04664063 6.63511719 8.84328125 7.30929687 9.6640625 8.00390625 C27.72053528 23.73883253 41.35149708 42.72424238 52.25 63.9609375 C52.6310791 64.68796875 53.0121582 65.415 53.40478516 66.1640625 C66.76368517 91.84593591 76.27905478 122.05791323 76.453125 151.203125 C76.45882507 151.97036896 76.46452515 152.73761292 76.47039795 153.52810669 C76.47978725 155.14665375 76.48635756 156.76521941 76.49023438 158.38378906 C76.49983811 160.79528686 76.53087646 163.20589261 76.5625 165.6171875 C76.65919784 179.68712728 75.29977364 193.79824033 70.5625 207.1484375 C70.18121948 208.24877319 70.18121948 208.24877319 69.79223633 209.37133789 C62.9477747 228.34776652 51.47807075 244.68399586 33.3125 254.3359375 C15.95658947 262.29533596 -3.85256563 262.4057043 -21.75 255.9609375 C-22.76964844 255.59871094 -23.78929687 255.23648437 -24.83984375 254.86328125 C-37.56587562 249.93006259 -48.55328936 242.97341477 -58.75 233.9609375 C-59.61496094 233.20554687 -60.47992187 232.45015625 -61.37109375 231.671875 C-63.86134701 229.46589723 -66.31334767 227.22587943 -68.75 224.9609375 C-69.41515625 224.34992188 -70.0803125 223.73890625 -70.765625 223.109375 C-77.15991561 217.00100796 -82.49345506 210.04625533 -87.75 202.9609375 C-88.15976074 202.41147461 -88.56952148 201.86201172 -88.99169922 201.29589844 C-107.40977743 176.2002294 -119.44669676 146.31648492 -125.75 115.9609375 C-125.99339111 114.86193115 -125.99339111 114.86193115 -126.24169922 113.74072266 C-131.04539338 91.42758808 -131.47616894 64.08057397 -125.75 41.9609375 C-125.50056641 40.96755371 -125.50056641 40.96755371 -125.24609375 39.95410156 C-121.61643965 25.85894482 -115.62269968 11.81477504 -105.75 0.9609375 C-105.03457031 0.14238281 -104.31914063 -0.67617187 -103.58203125 -1.51953125 C-74.53340551 -32.8427639 -30.71892976 -22.77738826 0 0 Z " fill="#000000" transform="translate(685.75,1365.0390625)"/>
<path d="M0 0 C14.92487027 12.53261748 24.03368225 30.80456899 28.640625 49.48828125 C28.9396875 50.65875 29.23875 51.82921875 29.546875 53.03515625 C34.89484842 76.9522313 33.01525696 104.80145198 27.640625 128.48828125 C27.42631836 129.43300293 27.21201172 130.37772461 26.99121094 131.35107422 C22.41638421 150.79908217 14.91930347 168.84902513 5.640625 186.48828125 C5.16238281 187.43574219 4.68414063 188.38320313 4.19140625 189.359375 C-12.99979318 222.51031258 -42.08457439 252.11174533 -77.546875 264.86328125 C-96.17325656 270.56729511 -115.15183113 269.8965543 -132.57104492 260.94848633 C-151.17795448 250.67937386 -162.75620648 231.75015715 -168.67263794 211.77398682 C-172.55018749 197.84987058 -173.91190206 184.33478903 -173.796875 169.92578125 C-173.79181442 168.68545639 -173.79181442 168.68545639 -173.78665161 167.42007446 C-173.70455962 153.45856061 -172.6406557 140.10100285 -169.359375 126.48828125 C-169.12331543 125.48619629 -168.88725586 124.48411133 -168.64404297 123.45166016 C-159.9847505 87.64763527 -142.80932467 49.97752023 -115.359375 24.48828125 C-114.534375 23.66328125 -113.709375 22.83828125 -112.859375 21.98828125 C-112.034375 21.16328125 -111.209375 20.33828125 -110.359375 19.48828125 C-109.91851563 19.00101563 -109.47765625 18.51375 -109.0234375 18.01171875 C-82.08511181 -10.84100572 -33.62599994 -26.24394798 0 0 Z " fill="#000000" transform="translate(1911.359375,545.51171875)"/>
<path d="M0 0 C4.38875625 3.60054572 8.60416377 7.31921963 12.71875 11.23046875 C13.24726562 11.72643555 13.77578125 12.22240234 14.3203125 12.73339844 C46.60927342 43.19781191 69.75300849 88.13276521 71.84326172 132.89697266 C72.61863779 160.80569529 68.69783389 186.53477089 49.71875 208.23046875 C48.88730469 209.18759766 48.88730469 209.18759766 48.0390625 210.1640625 C36.38109772 222.68661319 19.54709711 228.36157528 2.796875 229.4140625 C-32.55051883 230.2089113 -62.44374797 210.67246192 -87.21484375 187.265625 C-91.67945472 182.93301362 -95.49149195 178.15374002 -99.28125 173.23046875 C-100.46267578 171.78994141 -100.46267578 171.78994141 -101.66796875 170.3203125 C-129.13677372 136.21069754 -144.85631393 90.55564841 -141.06298828 46.70751953 C-138.45822705 24.39995979 -130.00569917 2.85198599 -112.59375 -12.01953125 C-77.67880572 -38.34085922 -31.65334531 -24.71853982 0 0 Z " fill="#000000" transform="translate(566.28125,1613.76953125)"/>
<path d="M0 0 C18.38968477 15.26011492 26.94557852 36.37410633 29.39526367 59.77783203 C32.13221109 92.52020674 23.67045662 124.57202736 8.51367188 153.39355469 C7.71479593 154.9209173 6.94103288 156.46136435 6.171875 158.00390625 C-1.21248177 172.38168326 -11.5360588 185.26933268 -22.40625 197.15234375 C-23.26476563 198.09464844 -24.12328125 199.03695312 -25.0078125 200.0078125 C-36.37826817 211.91072153 -49.78448926 221.64340655 -64.40625 229.15234375 C-65.44910156 229.69375 -66.49195313 230.23515625 -67.56640625 230.79296875 C-87.84458027 240.74359689 -111.72795063 245.15477675 -133.72265625 238.4765625 C-152.61331813 231.68553983 -165.71355075 218.99336438 -174.58203125 201.21875 C-177.74229883 194.46973181 -179.6975325 187.38560992 -181.40625 180.15234375 C-181.65246094 179.13398437 -181.89867187 178.115625 -182.15234375 177.06640625 C-190.02325735 136.57191282 -175.45693426 91.70309381 -153.46875 57.90234375 C-145.59836577 46.52366202 -137.01877315 36.09269014 -127.40625 26.15234375 C-126.86460205 25.58660645 -126.3229541 25.02086914 -125.76489258 24.43798828 C-94.82707739 -7.29198203 -39.29143027 -30.31537077 0 0 Z " fill="#000000" transform="translate(2045.40625,789.84765625)"/>
<path d="M0 0 C1.13501953 0.88945313 1.13501953 0.88945313 2.29296875 1.796875 C28.93979763 23.86893857 41.73037061 61.30027171 45.49609375 94.6640625 C48.58481677 128.31861416 45.15115258 163.03153566 31 194 C30.70899414 194.64485352 30.41798828 195.28970703 30.11816406 195.95410156 C18.80705608 220.74278371 0.09370176 243.90560358 -25.9375 253.875 C-44.9840625 260.11148507 -63.11340514 258.71070512 -81.1875 250.25 C-87.07069022 247.18017155 -91.98066898 243.30486768 -97 239 C-98.010625 238.236875 -99.02125 237.47375 -100.0625 236.6875 C-124.09100382 214.70397523 -135.19119393 181.26702668 -140 150 C-140.1045752 149.33097656 -140.20915039 148.66195313 -140.31689453 147.97265625 C-141.36632369 140.11789486 -141.24384216 132.16052985 -141.25 124.25 C-141.25067474 123.47099335 -141.25134949 122.69198669 -141.25204468 121.88937378 C-141.2348619 109.3766197 -140.6106292 97.27551179 -138 85 C-137.73461426 83.73978027 -137.73461426 83.73978027 -137.46386719 82.45410156 C-130.34842211 49.70339151 -114.59738128 14.68890573 -85.7265625 -4.375 C-57.43738571 -21.23502513 -26.2895258 -21.42412367 0 0 Z " fill="#000000" transform="translate(1168,1444)"/>
<path d="M0 0 C32.50136829 24.8209031 46.28285532 62.82763243 52.58886719 101.89306641 C53.63183963 109.69763476 53.48460386 117.62596048 53.49072266 125.48632812 C53.4913974 126.26533478 53.49207214 127.04434143 53.49276733 127.84695435 C53.47557594 140.36598724 52.82698955 152.45156038 50.24072266 164.73632812 C50.07443359 165.55520508 49.90814453 166.37408203 49.73681641 167.21777344 C43.07943706 199.11155189 27.61181358 231.31291429 -0.33740234 249.62695312 C-16.81086637 260.00467451 -35.20958556 263.38929038 -54.25927734 259.23632812 C-78.87789399 253.24536902 -98.07706566 233.86370504 -110.93457031 212.81201172 C-127.27093431 185.17376069 -134.23733414 152.98214495 -134.07177734 121.11132812 C-134.06995453 120.3754245 -134.06813171 119.63952087 -134.06625366 118.88131714 C-133.89093513 76.58158052 -121.49272637 36.98771933 -91.45849609 6.39257812 C-66.29132828 -17.66245625 -28.24609911 -20.28889939 0 0 Z " fill="#000000" transform="translate(1419.75927734375,629.263671875)"/>
</svg>
